<?xml version="1.0" encoding="utf-8"?>
<!-- Generator: Adobe Illustrator 25.2.1, SVG Export Plug-In . SVG Version: 6.00 Build 0)  -->
<svg version="1.1" id="Layer_1" xmlns="http://www.w3.org/2000/svg" xmlns:xlink="http://www.w3.org/1999/xlink" x="0px" y="0px"
	 viewBox="0 0 640.6 285.3" style="enable-background:new 0 0 640.6 285.3;" xml:space="preserve">
<style type="text/css">
	.st0{fill:#BCBEC0;}
	.st1{fill:#E6E7E8;}
</style>
<ellipse class="st0" cx="322.1" cy="52.9" rx="29.5" ry="50.6"/>
<circle class="st1" cx="303.2" cy="23.8" r="8.3"/>
<circle class="st1" cx="340.9" cy="37.6" r="10.6"/>
<circle class="st1" cx="311" cy="60.8" r="11.3"/>
<circle class="st1" cx="336.3" cy="78.8" r="8.3"/>
<g>
	<ellipse class="st0" cx="118.4" cy="246.2" rx="24.6" ry="33"/>
	<circle class="st1" cx="110" cy="270.4" r="5.6"/>
	<circle class="st1" cx="127.6" cy="251" r="11.4"/>
	<circle class="st1" cx="122.9" cy="223.9" r="5.6"/>
	<circle class="st1" cx="110" cy="234.4" r="4.8"/>
</g>
<g>
	<ellipse class="st0" cx="392.1" cy="246.8" rx="25.4" ry="34.1"/>
	<circle class="st1" cx="378.6" cy="225.7" r="5.8"/>
	<circle class="st1" cx="405.1" cy="235.4" r="7.5"/>
	<circle class="st1" cx="384.1" cy="251.7" r="8"/>
	<circle class="st1" cx="401.9" cy="264.4" r="5.8"/>
</g>
<g>
	<path d="M252.4,0c3.9,0,5.8,2.2,5.8,6.5v57.8h17.1c1.8,0,2.7,1,2.7,2.8v1.4c0,2-0.9,3-2.7,3h-17.1V102c0,2-1,3-3,3h-1.3
		c-1.9,0-2.9-1-2.9-3V71.4h-38.7c-3.3,0-5.4-1.1-6.1-3.3c-0.2-0.6-0.3-1.4-0.3-2.2s0.4-2,1.3-3.1l39-58.5C248.1,1.4,250.2,0,252.4,0
		z M251,64.2V9.8c-3.3,4.9-9,13.6-17.1,26.1c-8.1,12.5-14.4,22-18.9,28.4H251z"/>
	<path d="M320.9,0h1.8c8.2,0,15.1,2.3,20.7,6.9c5.6,4.6,8.4,11.8,8.4,21.6v46.4c0,10-2.7,17.5-8.1,22.6c-5.4,5.1-12.6,7.7-21.4,7.9
		h-0.9c-9-0.2-16.2-2.8-21.6-7.9c-5.4-5-8.1-12.6-8.1-22.6V28.5c0-6.6,1.4-12.1,4.4-16.5C301.2,4,309.5,0,320.9,0z M323,7.2h-2.4
		c-5.9,0-11,1.6-15.2,4.9c-4.2,3.3-6.3,8.9-6.3,16.9v45.8c0,15.6,7.2,23.4,21.8,23.4h1.8c14.5,0,21.8-7.8,21.8-23.4V29
		c0-8-2.1-13.6-6.3-16.9C334,8.8,328.9,7.2,323,7.2z"/>
	<path d="M413.9,0c3.9,0,5.8,2.2,5.8,6.5v57.8h17.1c1.8,0,2.7,1,2.7,2.8v1.4c0,2-0.9,3-2.7,3h-17.1V102c0,2-1,3-3,3h-1.3
		c-1.9,0-2.8-1-2.8-3V71.4h-38.7c-3.3,0-5.4-1.1-6.2-3.3c-0.2-0.6-0.3-1.4-0.3-2.2s0.5-2,1.3-3.1l39-58.5C409.7,1.4,411.7,0,413.9,0
		z M412.6,64.2V9.8c-3.3,4.9-9,13.6-17.1,26.1c-8.1,12.5-14.4,22-18.9,28.4H412.6z"/>
	<path d="M5.6,179.7c2.7,0,4.8,1.2,6.3,3.6c19.3,32,37.1,62.5,53.2,91.4V183c0-0.8,0.3-1.5,0.8-2.1c0.5-0.6,1.3-0.9,2.2-0.9h1.5
		c0.9,0,1.6,0.3,2.2,0.9c0.5,0.6,0.8,1.3,0.8,2.1v96.5c0,2-0.6,3.5-1.7,4.4c-1.2,1-2.8,1.4-4.9,1.4c-2.1,0-3.9-1.1-5.2-3.3
		L7.5,190.6V282c0,0.8-0.3,1.5-0.9,2.1S5.3,285,4.5,285H2.9c-0.8,0-1.5-0.3-2-0.9C0.3,283.5,0,282.8,0,282v-96.1
		C0,181.8,1.8,179.7,5.6,179.7z"/>
	<path d="M99.9,216.1c4.8-4.3,11-6.4,18.8-6.4c7.7,0,13.9,2.2,18.6,6.5c4.7,4.4,7.1,10.4,7.1,18.2v26.1c0,7.8-2.4,13.9-7.1,18.2
		c-4.7,4.4-10.9,6.5-18.5,6.5s-13.9-2.2-18.8-6.5c-4.9-4.4-7.3-10.4-7.3-18.2v-26.1C92.7,226.6,95.1,220.5,99.9,216.1z M132,221.3
		c-3.5-3-7.9-4.6-13.3-4.6c-5.4,0-9.9,1.5-13.5,4.6c-3.6,3.1-5.4,7.4-5.4,13.1v26.1c0,5.7,1.8,10.1,5.4,13.1
		c3.6,3.1,8.1,4.6,13.5,4.6c5.4,0,9.8-1.5,13.3-4.6c3.5-3,5.2-7.4,5.2-13.1v-26.1C137.2,228.8,135.5,224.4,132,221.3z"/>
	<path d="M163.2,210h3.6c0.9,0,1.6,0.3,2.2,0.9c0.5,0.6,0.8,1.3,0.8,2.1v0.9c0,0.8-0.3,1.5-0.8,2.1c-0.6,0.6-1.3,0.9-2.2,0.9h-3.6
		c-0.9,0-1.6-0.3-2.2-0.9c-0.6-0.6-0.8-1.3-0.8-2.1V213c0-0.8,0.3-1.5,0.8-2.1C161.6,210.3,162.3,210,163.2,210z M174.7,175.5h1.2
		c1.9,0,2.9,1,2.9,2.9l-0.5,83.5c0.1,5.1,1.5,9.1,4.3,11.9c2.7,2.8,6.4,4.2,10.9,4.2h3.8c0.8,0,1.5,0.3,2,0.9
		c0.5,0.6,0.8,1.3,0.8,1.9v1.2c0,2-2.2,3-6.8,3c-6.6,0-11.9-2-15.9-6.1c-4-4-6.1-9.7-6.1-16.9l0.5-83.7
		C171.9,176.5,172.9,175.5,174.7,175.5z M183.3,210h11.1c0.8,0,1.5,0.3,2,0.9c0.5,0.6,0.8,1.3,0.8,2.1v0.9c0,0.8-0.3,1.5-0.8,2.1
		c-0.6,0.6-1.2,0.9-2,0.9h-11.1c-0.8,0-1.5-0.3-2.1-0.9s-0.9-1.3-0.9-2.1V213c0-0.8,0.3-1.5,0.9-2.1S182.5,210,183.3,210z"/>
	<path d="M298,180h50c0.9,0,1.6,0.3,2.2,0.9c0.5,0.6,0.8,1.3,0.8,2.1v1.4c0,2-1,3-3,3h-48.2V282c0,0.8-0.3,1.5-0.8,2.1
		c-0.6,0.6-1.3,0.9-2.2,0.9h-1.5c-0.9,0-1.6-0.3-2.2-0.9c-0.6-0.6-0.8-1.3-0.8-2.1v-96c0-1.9,0.3-3.4,1.1-4.4
		C294.1,180.5,295.6,180,298,180z M305.8,226.8h33.8c0.8,0,1.5,0.3,2.1,0.9c0.6,0.6,0.9,1.3,0.9,2.1v1.4c0,0.9-0.3,1.6-0.9,2.2
		c-0.6,0.6-1.3,0.8-2.1,0.8h-33.8c-1.9,0-2.9-1-2.9-3v-1.4c0-0.8,0.3-1.5,0.8-2.1C304.4,227.1,305,226.8,305.8,226.8z"/>
	<path d="M373.5,216.1c4.8-4.3,11-6.4,18.8-6.4c7.7,0,13.9,2.2,18.6,6.5c4.7,4.4,7.1,10.4,7.1,18.2v26.1c0,7.8-2.4,13.9-7.1,18.2
		c-4.7,4.4-10.9,6.5-18.5,6.5c-7.7,0-13.9-2.2-18.8-6.5c-4.9-4.4-7.3-10.4-7.3-18.2v-26.1C366.3,226.6,368.7,220.5,373.5,216.1z
		 M405.6,221.3c-3.5-3-7.9-4.6-13.3-4.6s-9.9,1.5-13.5,4.6c-3.6,3.1-5.4,7.4-5.4,13.1v26.1c0,5.7,1.8,10.1,5.4,13.1
		c3.6,3.1,8.1,4.6,13.5,4.6s9.8-1.5,13.3-4.6c3.5-3,5.2-7.4,5.2-13.1v-26.1C410.8,228.8,409.1,224.4,405.6,221.3z"/>
	<path d="M444.9,209.7h1.2c2,0,3,1,3,3v47.4c0,5.9,1.5,10.4,4.4,13.4c2.9,3,7.1,4.5,12.5,4.5c5.4,0,10-2.1,14-6.5
		c0.9-1.1,1.8-1.6,2.8-1.6c1.9,0,2.8,1.1,2.8,3.3c0,0.9-0.2,1.7-0.8,2.4c-2,2.8-4.8,5.1-8.4,6.8c-3.6,1.8-7.4,2.6-11.4,2.6
		c-6.9,0-12.5-2.2-16.7-6.5c-4.3-4.4-6.4-10.4-6.4-18.2v-47.5C442,210.7,443,209.7,444.9,209.7z M489.3,210h1.5c1.9,0,2.8,1,2.8,3
		v54.5c0,3.9,0.3,6.6,1,8c0.6,1.5,1.9,2.4,3.8,2.9l1.7,0.5c1.5,0.3,2.2,1,2.2,1.9v1.7c0,1.7-1,2.5-3,2.5c-4.9,0-8.3-1.4-10.1-4.4
		c-1.9-2.9-2.8-7.4-2.8-13.4V213C486.4,211,487.4,210,489.3,210z"/>
	<path d="M517.9,210.1h1.2c0.8,0,1.5,0.3,2.1,0.8c0.6,0.6,0.9,1.3,0.9,2.2V282c0,0.9-0.3,1.6-0.9,2.2c-0.6,0.6-1.3,0.8-2.1,0.8h-1.2
		c-0.8,0-1.5-0.3-2.1-0.8c-0.6-0.5-0.9-1.3-0.9-2.2v-68.9c0-0.9,0.3-1.6,0.9-2.2C516.4,210.4,517.1,210.1,517.9,210.1z M543.3,209.7
		c7.5,0,13.2,2,17.2,5.9c4,4,6,9.7,6,17.3v49c0,2-1,3-2.9,3h-1.2c-2,0-3-1-3-3v-47.4c0-11.9-5.5-17.9-16.4-17.9
		c-5.7,0-10.6,2.2-14.5,6.8c-1.1,0.9-2.1,1.4-2.9,1.4c-1.8,0-2.8-1-2.8-3c0-0.8,0.2-1.6,0.6-2.4c2.1-2.9,4.9-5.2,8.4-7.1
		C535.4,210.6,539.2,209.7,543.3,209.7z"/>
	<path d="M636.1,175.2h1.8c1.8,0,2.7,1,2.7,2.8v82.5c0,7.8-2.4,13.9-7.1,18.2c-4.8,4.4-11,6.5-18.7,6.5c-7.7,0-14-2.1-18.8-6.4
		c-4.8-4.3-7.2-10.4-7.2-18.3v-26.1c0-7.7,2.4-13.7,7.2-18c4.8-4.3,11-6.5,18.8-6.5c3.2,0,6.6,0.6,10.3,1.8c3.6,1.2,6.4,2.6,8.3,4.1
		V178C633.4,176.2,634.3,175.2,636.1,175.2z M633.4,224.1c-5.8-4.6-11.7-6.9-17.7-6.9s-10.8,1.5-14.3,4.5c-3.6,3-5.3,7.3-5.3,13
		v25.6c0,5.8,1.8,10.2,5.3,13.2c3.5,3,8,4.5,13.4,4.5c5.4,0,9.8-1.5,13.3-4.6c3.5-3,5.2-7.4,5.2-13.1V224.1z"/>
</g>
</svg>
