<svg width="217.7538" height="180.9568" xmlns="http://www.w3.org/2000/svg">

 <g>
  <title>Layer 1</title>
  <g stroke="null" id="svg_16">
   <ellipse stroke="null" id="svg_1" fill="#bdbec0" ry="85.04351" rx="59.65338" cy="92.90908" cx="62.45209" class="a"/>
   <circle stroke="null" id="svg_3" transform="matrix(0.221279 -1.44772 1.36358 0.234933 -324.127 53.3594)" fill="#e6e7e7" r="9.8679" cy="272.79746" cx="-26.07718" class="c"/>
   <circle stroke="null" id="svg_4" fill="#e6e7e7" r="26.36127" cy="105.12969" cx="84.88351" class="c"/>
   <circle stroke="null" id="svg_14" fill="#e6e7e7" r="12.94741" cy="35.08976" cx="73.5106" class="c"/>
   <circle stroke="null" id="svg_15" fill="#e6e7e7" r="11.15643" cy="62.39945" cx="42.08312" class="c"/>
  </g>
  <path id="svg_2" fill="#231f20" d="m135.8167,66.2862a32.6183,32.6183 0 0 1 9.8533,-24.1722q9.8536,-9.7257 29.4331,-9.7257t30.073,9.5977q10.4939,9.5979 10.4939,28.2814a4.8061,4.8061 0 0 1 -4.7485,4.8629c-0.0381,0 -0.0763,0 -0.1144,0l-2.3034,0a4.6919,4.6919 0 0 1 -3.4552,-1.4219a4.4079,4.4079 0 0 1 -1.4219,-3.1992q0,-25.85 -28.9213,-25.85q-13.3089,0 -20.0913,6.3985a21.2289,21.2289 0 0 0 -6.7682,16.1242a19.6079,19.6079 0 0 0 6.5265,15.4844q6.5264,5.7588 24.6982,9.3419t28.4379,11.2618q10.2376,7.6782 10.2377,22.9067a32.7891,32.7891 0 0 1 -11.1334,25.3381q-11.1334,10.11 -30.9688,10.11t-32.12,-10.11q-12.2852,-10.11 -12.2852,-29.86q0,-5.3748 5.1189,-5.3748l2.0475,0q4.8629,0 4.8628,5.1188q-0.0283,27.9687 33.0163,27.9686q14.8446,0 22.1389,-6.7824a21.9824,21.9824 0 0 0 7.2943,-16.7641q0,-9.9533 -7.6782,-14.4606t-26.7458,-8.5313q-19.0961,-4.1663 -27.2861,-13.181t-8.1906,-23.3618z" class="b"/>
  <path id="svg_5" fill="#231f20" d="m32.1351,6.5265a63.5616,63.5616 0 0 1 16.1242,-5.3748a85.5018,85.5018 0 0 1 13.8207,-1.1517a83.18,83.18 0 0 1 13.6929,1.1517a63.5444,63.5444 0 0 1 15.2427,4.8629a60.2313,60.2313 0 0 1 14.9725,9.47a51.2881,51.2881 0 0 1 11.759,15.8683a65.2641,65.2641 0 0 1 6.3985,23.4185q0,5.6875 -5.1188,5.6876l-2.3034,0a4.6206,4.6206 0 0 1 -5.1188,-4.6069a57.2032,57.2032 0 0 0 -5.3746,-18.9967a37.2535,37.2535 0 0 0 -9.5267,-12.5411a48.3452,48.3452 0 0 0 -12.2853,-7.1094a48.9972,48.9972 0 0 0 -18.9965,-4.4079a85.7472,85.7472 0 0 0 -14.5886,1.0238a53.5342,53.5342 0 0 0 -12.9249,4.351a42.2011,42.2011 0 0 0 -12.5553,8.8441a43.695,43.695 0 0 0 -9.0859,15.4841a65.89,65.89 0 0 0 -3.7112,23.0346l0,50.15a60.3181,60.3181 0 0 0 4.0951,23.0354a44.4333,44.4333 0 0 0 9.8537,15.4844a45.3592,45.3592 0 0 0 13.4369,8.83a57.6866,57.6866 0 0 0 23.0346,5.3747a75.2576,75.2576 0 0 0 18.3,-1.9195a49.7682,49.7682 0 0 0 14.9725,-6.7824q15.8684,-9.9532 15.8683,-37.1114q0,-4.3509 1.4219,-5.6875a5.304,5.304 0 0 1 3.7111,-1.28l2.0476,0q5.1188,0 5.1188,5.1189a69.6728,69.6728 0 0 1 -4.9624,27.4424q-4.9908,11.7733 -11.6453,17.7879a51.6291,51.6291 0 0 1 -15.6408,9.5978q-13.8211,5.3747 -24.1724,5.3747a108.7767,108.7767 0 0 1 -17.9159,-1.28a67.454,67.454 0 0 1 -16.892,-5.6876a61.2955,61.2955 0 0 1 -16.38,-11.0054q-7.0673,-6.569 -11.9299,-18.7546a74.307,74.307 0 0 1 -4.8628,-27.77l0,-51.9554a78.6863,78.6863 0 0 1 4.7354,-28.4379q4.7349,-12.285 11.5173,-18.8116a57.8,57.8 0 0 1 15.8678,-10.721z" class="b"/>
 </g>
</svg>