<svg xmlns="http://www.w3.org/2000/svg" viewBox="0 0 217.7538 180.9568"><defs><style>.a{fill:#bdbec0;}.b{fill:#231f20;}.c{fill:#e6e7e7;}</style></defs><ellipse class="a" cx="62.2168" cy="88.6738" rx="43.1828" ry="57.9847"/><path class="b" d="M135.8167,66.2862A32.6183,32.6183,0,0,1,145.67,42.114q9.8536-9.7257,29.4331-9.7257t30.073,9.5977Q215.67,51.5839,215.67,70.2674a4.8061,4.8061,0,0,1-4.7485,4.8629c-.0381,0-.0763,0-.1144,0h-2.3034a4.6919,4.6919,0,0,1-3.4552-1.4219,4.4079,4.4079,0,0,1-1.4219-3.1992q0-25.85-28.9213-25.85-13.3089,0-20.0913,6.3985a21.2289,21.2289,0,0,0-6.7682,16.1242,19.6079,19.6079,0,0,0,6.5265,15.4844q6.5264,5.7588,24.6982,9.3419T207.5084,103.27q10.2376,7.6782,10.2377,22.9067a32.7891,32.7891,0,0,1-11.1334,25.3381q-11.1334,10.11-30.9688,10.11t-32.12-10.11q-12.2852-10.11-12.2852-29.86,0-5.3748,5.1189-5.3748h2.0475q4.8629,0,4.8628,5.1188-.0283,27.9687,33.0163,27.9686,14.8446,0,22.1389-6.7824a21.9824,21.9824,0,0,0,7.2943-16.7641q0-9.9533-7.6782-14.4606t-26.7458-8.5313q-19.0961-4.1663-27.2861-13.181T135.8167,66.2862Z"/><circle class="c" cx="47.4718" cy="131.1457" r="9.8679" transform="translate(-89.5847 156.9973) rotate(-80.7825)"/><circle class="c" cx="78.4548" cy="97.0061" r="20.0913"/><path class="b" d="M32.1351,6.5265A63.5616,63.5616,0,0,1,48.2593,1.1517,85.5018,85.5018,0,0,1,62.08,0,83.18,83.18,0,0,1,75.7729,1.1517,63.5444,63.5444,0,0,1,91.0156,6.0146a60.2313,60.2313,0,0,1,14.9725,9.47,51.2881,51.2881,0,0,1,11.759,15.8683,65.2641,65.2641,0,0,1,6.3985,23.4185q0,5.6875-5.1188,5.6876h-2.3034a4.6206,4.6206,0,0,1-5.1188-4.6069A57.2032,57.2032,0,0,0,106.23,36.8554a37.2535,37.2535,0,0,0-9.5267-12.5411A48.3452,48.3452,0,0,0,84.418,17.2049,48.9972,48.9972,0,0,0,65.4215,12.797a85.7472,85.7472,0,0,0-14.5886,1.0238,53.5342,53.5342,0,0,0-12.9249,4.351,42.2011,42.2011,0,0,0-12.5553,8.8441A43.695,43.695,0,0,0,16.2668,42.5a65.89,65.89,0,0,0-3.7112,23.0346v50.15A60.3181,60.3181,0,0,0,16.6507,138.72a44.4333,44.4333,0,0,0,9.8537,15.4844,45.3592,45.3592,0,0,0,13.4369,8.83,57.6866,57.6866,0,0,0,23.0346,5.3747,75.2576,75.2576,0,0,0,18.3-1.9195,49.7682,49.7682,0,0,0,14.9725-6.7824q15.8684-9.9532,15.8683-37.1114,0-4.3509,1.4219-5.6875a5.304,5.304,0,0,1,3.7111-1.28h2.0476q5.1188,0,5.1188,5.1189a69.6728,69.6728,0,0,1-4.9624,27.4424q-4.9908,11.7733-11.6453,17.7879a51.6291,51.6291,0,0,1-15.6408,9.5978Q78.3465,180.95,67.9952,180.95a108.7767,108.7767,0,0,1-17.9159-1.28,67.454,67.454,0,0,1-16.892-5.6876,61.2955,61.2955,0,0,1-16.38-11.0054Q9.74,156.408,4.8774,144.2224a74.307,74.307,0,0,1-4.8628-27.77V64.497A78.6863,78.6863,0,0,1,4.75,36.0591q4.7349-12.285,11.5173-18.8116A57.8,57.8,0,0,1,32.1351,6.5265Z"/><path class="b" d="M30.48,35.0543Q42.7654,24.049,62.4727,24.0489T94.2093,35.1823q12.0293,11.1334,12.0292,31.0968v44.5336q0,19.9064-12.0292,31.0967T62.6007,153.0428q-19.58,0-31.9925-11.1334T18.1951,110.8127V66.279Q18.195,46.06,30.48,35.0543Zm54.7712,8.83q-8.9579-7.8063-22.75-7.8062T39.4665,43.8843Q30.2526,51.69,30.2527,66.279v44.5337q0,14.5885,9.2138,22.3947t23.0346,7.8062q13.8209,0,22.75-7.8062t8.9579-22.3947V66.279Q94.2093,51.69,85.2514,43.8843Z"/><ellipse class="a" cx="174.4933" cy="126.5509" rx="8.2808" ry="11.1192"/><path class="b" d="M164.538,57.671h.3289a.8239.8239,0,0,1,.5756.2284.77.77,0,0,1,.2467.5961V77.3666a.77.77,0,0,1-.2467.5961.8239.8239,0,0,1-.5756.2284h-.3289q-.781,0-.7811-.8222V58.4932Q163.7569,57.6709,164.538,57.671Zm1.5212,2.549a5.9689,5.9689,0,0,1,5.1392-2.6724,6.3582,6.3582,0,0,1,4.8925,1.7679,7.1191,7.1191,0,0,1,1.6446,5.025V77.3734c0,.5482-.2627.8223-.7812.8223h-.3289a.7259.7259,0,0,1-.8223-.8223V64.3725a5.195,5.195,0,0,0-1.142-3.6546,4.3659,4.3659,0,0,0-3.3508-1.2334,5.003,5.003,0,0,0-3.8441,1.85,1.3353,1.3353,0,0,1-.7811.37c-.4934,0-.7561-.274-.7812-.8222A1.43,1.43,0,0,1,166.0592,60.22Zm17.3819-2.6724a6.09,6.09,0,0,1,4.6869,1.7679,7.0911,7.0911,0,0,1,1.6446,5.025V77.3734c0,.5482-.2627.8223-.7812.8223h-.32a.7259.7259,0,0,1-.8222-.8223V64.3725a5.1945,5.1945,0,0,0-1.1421-3.6546,4.4216,4.4216,0,0,0-3.3918-1.2334,5.1605,5.1605,0,0,0-3.9264,1.85,1.3421,1.3421,0,0,1-.7811.37c-.4934,0-.7561-.274-.7812-.8222a1.43,1.43,0,0,1,.1645-.6578,6.3713,6.3713,0,0,1,2.2932-1.9278A6.8111,6.8111,0,0,1,183.4411,57.5476Z"/><circle class="c" cx="170.0952" cy="119.6525" r="1.8923"/><circle class="c" cx="178.7414" cy="122.8236" r="2.4349"/><path class="b" d="M168.41,116.2688a8.84,8.84,0,0,1,6.1349-2.11,8.5876,8.5876,0,0,1,6.0831,2.1349,7.722,7.722,0,0,1,2.3068,5.9632v8.54a7.7432,7.7432,0,0,1-2.3068,5.9632,8.4967,8.4967,0,0,1-6.0558,2.1349,8.84,8.84,0,0,1-6.135-2.1349,7.5978,7.5978,0,0,1-2.38-5.9632v-8.54A7.6016,7.6016,0,0,1,168.41,116.2688Zm10.5,1.6932a6.4,6.4,0,0,0-4.3627-1.4969,6.6206,6.6206,0,0,0-4.42,1.4969,5.3159,5.3159,0,0,0-1.7669,4.2945v8.54a5.3159,5.3159,0,0,0,1.7669,4.2945,6.6188,6.6188,0,0,0,4.4171,1.5023,6.3931,6.3931,0,0,0,4.3626-1.4969,5.4012,5.4012,0,0,0,1.7178-4.2944v-8.5453A5.3828,5.3828,0,0,0,178.9105,117.962Z"/><circle class="c" cx="171.8948" cy="128.1487" r="2.6012"/><circle class="c" cx="177.6807" cy="132.2687" r="1.8923"/><circle class="c" cx="70.222" cy="49.4865" r="9.8679"/><circle class="c" cx="47.4718" cy="67.8716" r="8.5029"/></svg>