<?xml version="1.0" standalone="no"?>
<!DOCTYPE svg PUBLIC "-//W3C//DTD SVG 20010904//EN"
 "http://www.w3.org/TR/2001/REC-SVG-20010904/DTD/svg10.dtd">
<svg version="1.0" xmlns="http://www.w3.org/2000/svg"
 width="872.000000pt" height="872.000000pt" viewBox="0 0 872.000000 872.000000"
 preserveAspectRatio="xMidYMid meet">
<metadata>
Created by potrace 1.14, written by Peter Selinger 2001-2017
</metadata>
<g transform="translate(0.000000,872.000000) scale(0.100000,-0.100000)"
fill="#000000" stroke="none">
<path d="M2300 7977 c-3 -3 -45 -7 -95 -11 -49 -3 -101 -8 -115 -10 -14 -2
-47 -7 -75 -10 -49 -6 -75 -10 -125 -21 -14 -4 -36 -8 -50 -11 -59 -12 -149
-37 -229 -65 -47 -16 -90 -31 -96 -33 -5 -2 -23 -8 -38 -14 -16 -7 -30 -12
-32 -12 -6 0 -158 -70 -230 -107 -84 -42 -260 -146 -295 -173 -14 -11 -59 -46
-100 -77 -41 -31 -77 -60 -80 -63 -3 -3 -24 -22 -48 -42 -23 -21 -40 -38 -37
-38 3 0 -11 -14 -30 -32 -125 -109 -289 -371 -401 -638 -30 -74 -84 -225 -90
-255 -2 -11 -13 -49 -24 -85 -10 -36 -22 -76 -24 -90 -3 -14 -14 -70 -25 -125
-11 -55 -22 -120 -26 -145 -3 -25 -8 -52 -10 -60 -16 -62 -20 -357 -20 -1505
0 -1171 3 -1373 19 -1465 3 -14 7 -45 10 -70 3 -25 8 -58 11 -75 4 -16 8 -41
10 -55 2 -14 4 -25 5 -25 1 0 3 -11 6 -25 5 -34 41 -170 65 -250 39 -127 82
-237 151 -380 141 -291 279 -471 510 -664 36 -31 69 -56 72 -56 3 0 17 -10 32
-22 41 -36 197 -138 211 -138 7 0 13 -4 13 -9 0 -5 12 -14 28 -20 15 -6 59
-28 97 -49 60 -32 115 -57 303 -139 31 -13 199 -70 232 -78 8 -2 51 -13 95
-24 121 -30 222 -47 345 -56 91 -8 141 -14 150 -20 5 -3 11 -1 15 4 3 6 15 7
28 2 25 -10 477 -12 492 -3 5 3 26 7 45 9 48 3 148 21 250 45 47 11 92 21 100
23 8 2 15 4 15 5 0 1 11 3 25 6 14 2 34 8 45 13 18 8 114 40 140 46 15 3 47
15 83 31 18 8 37 14 42 14 13 0 80 30 215 96 261 128 519 336 648 524 76 110
89 131 114 180 10 19 23 40 28 46 6 6 19 31 30 55 11 24 23 47 28 50 5 3 8 8
6 10 -1 2 8 25 20 51 20 44 42 96 46 108 1 3 7 19 14 35 31 75 94 276 107 345
3 14 9 41 14 60 5 19 12 55 15 80 4 24 9 48 11 52 3 4 7 33 10 65 2 32 7 70
10 86 14 85 21 383 9 437 -16 71 -62 114 -148 135 -22 6 -27 18 -17 45 3 6 3
10 14 80 5 30 10 64 12 75 6 30 19 126 29 220 14 126 18 220 18 485 0 266 -3
361 -17 485 -3 28 -8 75 -11 105 -3 30 -7 66 -10 80 -9 44 -13 64 -20 120 -4
30 -9 64 -12 75 -2 11 -6 29 -7 40 -7 43 -37 179 -41 185 -3 4 -7 25 -11 46
-3 22 -10 47 -15 57 -5 9 -7 17 -5 17 3 0 -1 18 -9 41 -18 50 -14 57 27 57 98
-1 171 38 200 105 8 20 12 67 12 127 -2 79 -10 185 -14 185 -2 0 -5 20 -16 85
-4 25 -8 47 -9 50 -7 27 -19 78 -21 90 -2 13 -16 65 -28 105 -3 12 -29 98 -31
105 -1 3 -5 14 -10 25 -4 11 -27 70 -51 130 -23 61 -64 151 -90 200 -26 50
-52 100 -58 112 -6 13 -14 23 -18 23 -5 0 -8 5 -8 11 0 15 -99 156 -167 239
-69 84 -210 222 -293 287 -213 166 -561 347 -805 418 -33 9 -67 20 -75 23 -36
13 -243 59 -295 66 -62 8 -135 17 -190 22 -68 7 -480 16 -485 11z"/>
<path d="M6929 6686 c-2 -2 -49 -7 -104 -11 -152 -11 -170 -13 -170 -15 0 -2
-11 -4 -25 -5 -14 -1 -38 -5 -55 -9 -16 -3 -48 -9 -70 -12 -22 -4 -48 -10 -57
-15 -10 -6 -18 -8 -18 -5 0 3 -26 -4 -57 -15 -32 -11 -65 -22 -73 -24 -8 -2
-15 -4 -15 -5 0 -1 -8 -3 -18 -5 -16 -3 -176 -81 -222 -108 -182 -108 -360
-305 -464 -511 -52 -105 -105 -252 -115 -321 -3 -22 -8 -51 -11 -65 -14 -61
-22 -236 -12 -246 3 -4 2 -14 -3 -24 -5 -10 -7 -20 -4 -23 3 -3 8 -36 10 -74
4 -74 12 -158 14 -158 1 0 3 -11 6 -24 48 -262 162 -481 343 -661 105 -105
218 -184 368 -259 91 -46 238 -109 273 -116 8 -2 42 -13 75 -24 32 -12 68 -23
80 -26 11 -2 60 -15 108 -29 48 -14 104 -27 123 -30 33 -6 145 -31 229 -52 6
-1 21 -4 35 -7 14 -3 50 -13 82 -21 31 -8 67 -17 80 -20 78 -15 436 -132 453
-147 5 -5 15 -9 22 -9 11 0 127 -55 193 -91 139 -77 248 -223 286 -386 29
-120 22 -373 -13 -453 -3 -8 -8 -23 -9 -33 -7 -35 -65 -151 -108 -216 -84
-127 -197 -227 -340 -299 -65 -32 -236 -95 -236 -87 0 3 -11 0 -24 -5 -13 -5
-44 -12 -67 -15 -24 -3 -55 -8 -69 -10 -138 -22 -507 -22 -605 -2 -11 3 -45 8
-75 13 -30 4 -57 8 -60 9 -3 1 -23 5 -45 9 -191 38 -394 138 -532 263 -43 39
-143 165 -143 181 0 6 -4 12 -9 12 -5 0 -14 12 -19 27 -6 16 -24 60 -40 98
-54 130 -74 241 -86 481 -9 173 -57 214 -250 216 -129 1 -196 -42 -223 -142
-11 -42 -2 -310 13 -385 3 -11 7 -36 10 -55 24 -150 95 -356 164 -474 22 -37
40 -72 40 -77 0 -5 4 -9 8 -9 4 0 15 -13 24 -28 20 -33 75 -98 138 -162 56
-57 184 -160 198 -160 6 0 12 -3 14 -8 9 -20 257 -153 329 -177 13 -4 26 -8
29 -10 31 -13 193 -62 230 -69 14 -2 44 -9 68 -14 23 -6 45 -10 47 -11 3 -1 6
-1 8 -2 1 0 18 -2 37 -4 19 -2 51 -7 70 -9 191 -28 533 -26 720 5 36 6 76 13
90 14 43 6 83 15 150 35 36 10 74 20 85 22 11 2 22 5 25 8 3 3 23 11 45 19 60
20 285 132 285 142 0 5 5 9 11 9 10 0 115 78 159 117 214 191 351 415 420 681
28 107 32 145 35 322 2 137 -2 210 -20 308 -12 72 -59 212 -94 282 -105 213
-261 359 -541 508 -163 86 -412 182 -595 228 -116 30 -130 33 -155 37 -14 3
-43 10 -65 16 -22 5 -56 12 -75 15 -42 6 -65 11 -115 25 -21 6 -42 8 -46 5 -4
-2 -10 0 -14 6 -3 5 -15 10 -26 10 -10 0 -76 16 -147 35 -121 34 -151 43 -197
61 -11 4 -22 8 -25 8 -12 3 -80 31 -138 57 -35 16 -65 29 -68 29 -6 0 -155 90
-172 104 -52 42 -142 139 -169 182 -84 129 -126 262 -127 406 -1 38 -5 68 -9
68 -5 0 -6 4 -2 9 3 5 7 43 10 83 2 40 9 88 14 106 5 18 10 33 10 35 0 1 2 9
5 17 2 8 10 33 17 55 52 172 224 376 387 458 17 10 45 24 61 32 17 9 38 18 49
20 10 1 34 10 54 18 36 15 145 39 243 54 67 10 391 10 484 0 80 -9 218 -38
291 -63 48 -16 182 -75 190 -84 3 -3 12 -9 21 -15 82 -51 105 -71 174 -146 78
-85 157 -234 185 -351 6 -24 13 -52 16 -63 10 -44 23 -158 28 -265 4 -90 13
-115 59 -163 46 -46 98 -60 212 -55 84 3 94 6 131 36 63 51 79 89 78 196 0 91
-10 236 -19 289 -19 108 -44 217 -55 238 -6 10 -9 19 -6 19 8 0 -55 153 -92
225 -92 175 -223 321 -398 443 -38 27 -224 124 -224 117 0 -2 -16 4 -35 15
-20 11 -42 20 -51 20 -8 0 -27 6 -42 14 -15 8 -41 16 -57 19 -17 3 -48 9 -70
15 -22 6 -51 13 -65 16 -14 3 -36 7 -50 10 -51 12 -139 22 -269 32 -41 3 -78
7 -82 10 -4 2 -10 0 -13 -5 -4 -5 -19 -6 -34 -2 -31 8 -100 7 -109 -3 -3 -3
-11 -1 -18 4 -7 5 -14 8 -16 6z"/>
</g>
</svg>
